<?xml version="1.0" encoding="UTF-8" standalone="no"?>
<!DOCTYPE svg PUBLIC "-//W3C//DTD SVG 1.1//EN"
 "http://www.w3.org/Graphics/SVG/1.1/DTD/svg11.dtd">
<!-- Generated by graphviz version 2.49.1 (20211004.0028)
 -->
<!-- Title: snakemake_dag Pages: 1 -->
<svg width="146pt" height="404pt"
 viewBox="0.00 0.00 146.00 404.00" xmlns="http://www.w3.org/2000/svg" xmlns:xlink="http://www.w3.org/1999/xlink">
<g id="graph0" class="graph" transform="scale(1 1) rotate(0) translate(4 400)">
<title>snakemake_dag</title>
<polygon fill="white" stroke="transparent" points="-4,4 -4,-400 142,-400 142,4 -4,4"/>
<!-- 0 -->
<g id="node1" class="node">
<title>0</title>
<path fill="none" stroke="#d85656" stroke-width="2" d="M84,-36C84,-36 54,-36 54,-36 48,-36 42,-30 42,-24 42,-24 42,-12 42,-12 42,-6 48,0 54,0 54,0 84,0 84,0 90,0 96,-6 96,-12 96,-12 96,-24 96,-24 96,-30 90,-36 84,-36"/>
<text text-anchor="middle" x="69" y="-15.5" font-family="sans" font-size="10.00">all</text>
</g>
<!-- 1 -->
<g id="node2" class="node">
<title>1</title>
<path fill="none" stroke="#afd856" stroke-width="2" d="M85.5,-108C85.5,-108 52.5,-108 52.5,-108 46.5,-108 40.5,-102 40.5,-96 40.5,-96 40.5,-84 40.5,-84 40.5,-78 46.5,-72 52.5,-72 52.5,-72 85.5,-72 85.5,-72 91.5,-72 97.5,-78 97.5,-84 97.5,-84 97.5,-96 97.5,-96 97.5,-102 91.5,-108 85.5,-108"/>
<text text-anchor="middle" x="69" y="-87.5" font-family="sans" font-size="10.00">analysis</text>
</g>
<!-- 1&#45;&gt;0 -->
<g id="edge1" class="edge">
<title>1&#45;&gt;0</title>
<path fill="none" stroke="grey" stroke-width="2" d="M69,-71.7C69,-63.98 69,-54.71 69,-46.11"/>
<polygon fill="grey" stroke="grey" stroke-width="2" points="72.5,-46.1 69,-36.1 65.5,-46.1 72.5,-46.1"/>
</g>
<!-- 2 -->
<g id="node3" class="node">
<title>2</title>
<path fill="none" stroke="#56d8a9" stroke-width="2" d="M94.5,-252C94.5,-252 43.5,-252 43.5,-252 37.5,-252 31.5,-246 31.5,-240 31.5,-240 31.5,-228 31.5,-228 31.5,-222 37.5,-216 43.5,-216 43.5,-216 94.5,-216 94.5,-216 100.5,-216 106.5,-222 106.5,-228 106.5,-228 106.5,-240 106.5,-240 106.5,-246 100.5,-252 94.5,-252"/>
<text text-anchor="middle" x="69" y="-231.5" font-family="sans" font-size="10.00">postprocess</text>
</g>
<!-- 2&#45;&gt;1 -->
<g id="edge2" class="edge">
<title>2&#45;&gt;1</title>
<path fill="none" stroke="grey" stroke-width="2" d="M65.75,-215.89C63.95,-205.54 61.91,-192.06 61,-180 59.8,-164.04 59.8,-159.96 61,-144 61.64,-135.52 62.84,-126.34 64.12,-118.04"/>
<polygon fill="grey" stroke="grey" stroke-width="2" points="67.58,-118.55 65.75,-108.11 60.68,-117.41 67.58,-118.55"/>
</g>
<!-- 5 -->
<g id="node6" class="node">
<title>5</title>
<path fill="none" stroke="#56a9d8" stroke-width="2" d="M112,-180C112,-180 82,-180 82,-180 76,-180 70,-174 70,-168 70,-168 70,-156 70,-156 70,-150 76,-144 82,-144 82,-144 112,-144 112,-144 118,-144 124,-150 124,-156 124,-156 124,-168 124,-168 124,-174 118,-180 112,-180"/>
<text text-anchor="middle" x="97" y="-159.5" font-family="sans" font-size="10.00">phylo</text>
</g>
<!-- 2&#45;&gt;5 -->
<g id="edge7" class="edge">
<title>2&#45;&gt;5</title>
<path fill="none" stroke="grey" stroke-width="2" d="M75.92,-215.7C79.07,-207.81 82.88,-198.3 86.38,-189.55"/>
<polygon fill="grey" stroke="grey" stroke-width="2" points="89.69,-190.69 90.16,-180.1 83.19,-188.09 89.69,-190.69"/>
</g>
<!-- 3 -->
<g id="node4" class="node">
<title>3</title>
<path fill="none" stroke="#59d856" stroke-width="2" d="M112,-324C112,-324 82,-324 82,-324 76,-324 70,-318 70,-312 70,-312 70,-300 70,-300 70,-294 76,-288 82,-288 82,-288 112,-288 112,-288 118,-288 124,-294 124,-300 124,-300 124,-312 124,-312 124,-318 118,-324 112,-324"/>
<text text-anchor="middle" x="97" y="-303.5" font-family="sans" font-size="10.00">msa</text>
</g>
<!-- 3&#45;&gt;2 -->
<g id="edge4" class="edge">
<title>3&#45;&gt;2</title>
<path fill="none" stroke="grey" stroke-width="2" d="M90.08,-287.7C86.93,-279.81 83.12,-270.3 79.62,-261.55"/>
<polygon fill="grey" stroke="grey" stroke-width="2" points="82.81,-260.09 75.84,-252.1 76.31,-262.69 82.81,-260.09"/>
</g>
<!-- 4 -->
<g id="node5" class="node">
<title>4</title>
<path fill="none" stroke="#d8ac56" stroke-width="2" d="M126,-396C126,-396 12,-396 12,-396 6,-396 0,-390 0,-384 0,-384 0,-372 0,-372 0,-366 6,-360 12,-360 12,-360 126,-360 126,-360 132,-360 138,-366 138,-372 138,-372 138,-384 138,-384 138,-390 132,-396 126,-396"/>
<text text-anchor="middle" x="69" y="-381" font-family="sans" font-size="10.00">preprocess</text>
<text text-anchor="middle" x="69" y="-370" font-family="sans" font-size="10.00">genome: WNV_Genomes</text>
</g>
<!-- 4&#45;&gt;2 -->
<g id="edge5" class="edge">
<title>4&#45;&gt;2</title>
<path fill="none" stroke="grey" stroke-width="2" d="M65.75,-359.89C63.95,-349.54 61.91,-336.06 61,-324 59.8,-308.04 59.8,-303.96 61,-288 61.64,-279.52 62.84,-270.34 64.12,-262.04"/>
<polygon fill="grey" stroke="grey" stroke-width="2" points="67.58,-262.55 65.75,-252.11 60.68,-261.41 67.58,-262.55"/>
</g>
<!-- 4&#45;&gt;3 -->
<g id="edge6" class="edge">
<title>4&#45;&gt;3</title>
<path fill="none" stroke="grey" stroke-width="2" d="M75.92,-359.7C79.07,-351.81 82.88,-342.3 86.38,-333.55"/>
<polygon fill="grey" stroke="grey" stroke-width="2" points="89.69,-334.69 90.16,-324.1 83.19,-332.09 89.69,-334.69"/>
</g>
<!-- 5&#45;&gt;1 -->
<g id="edge3" class="edge">
<title>5&#45;&gt;1</title>
<path fill="none" stroke="grey" stroke-width="2" d="M90.08,-143.7C86.93,-135.81 83.12,-126.3 79.62,-117.55"/>
<polygon fill="grey" stroke="grey" stroke-width="2" points="82.81,-116.09 75.84,-108.1 76.31,-118.69 82.81,-116.09"/>
</g>
</g>
</svg>
