<?xml version="1.0" encoding="UTF-8" standalone="no"?>
<!DOCTYPE svg PUBLIC "-//W3C//DTD SVG 1.1//EN"
 "http://www.w3.org/Graphics/SVG/1.1/DTD/svg11.dtd">
<!-- Generated by graphviz version 2.49.1 (20211004.0028)
 -->
<!-- Title: snakemake_dag Pages: 1 -->
<svg width="146pt" height="548pt"
 viewBox="0.00 0.00 146.00 548.00" xmlns="http://www.w3.org/2000/svg" xmlns:xlink="http://www.w3.org/1999/xlink">
<g id="graph0" class="graph" transform="scale(1 1) rotate(0) translate(4 544)">
<title>snakemake_dag</title>
<polygon fill="white" stroke="transparent" points="-4,4 -4,-544 142,-544 142,4 -4,4"/>
<!-- 0 -->
<g id="node1" class="node">
<title>0</title>
<path fill="none" stroke="#97d856" stroke-width="2" stroke-dasharray="5,2" d="M84,-36C84,-36 54,-36 54,-36 48,-36 42,-30 42,-24 42,-24 42,-12 42,-12 42,-6 48,0 54,0 54,0 84,0 84,0 90,0 96,-6 96,-12 96,-12 96,-24 96,-24 96,-30 90,-36 84,-36"/>
<text text-anchor="middle" x="69" y="-15.5" font-family="sans" font-size="10.00">all</text>
</g>
<!-- 1 -->
<g id="node2" class="node">
<title>1</title>
<path fill="none" stroke="#d85656" stroke-width="2" stroke-dasharray="5,2" d="M84,-108C84,-108 54,-108 54,-108 48,-108 42,-102 42,-96 42,-96 42,-84 42,-84 42,-78 48,-72 54,-72 54,-72 84,-72 84,-72 90,-72 96,-78 96,-84 96,-84 96,-96 96,-96 96,-102 90,-108 84,-108"/>
<text text-anchor="middle" x="69" y="-87.5" font-family="sans" font-size="10.00">plot</text>
</g>
<!-- 1&#45;&gt;0 -->
<g id="edge1" class="edge">
<title>1&#45;&gt;0</title>
<path fill="none" stroke="grey" stroke-width="2" d="M69,-71.7C69,-63.98 69,-54.71 69,-46.11"/>
<polygon fill="grey" stroke="grey" stroke-width="2" points="72.5,-46.1 69,-36.1 65.5,-46.1 72.5,-46.1"/>
</g>
<!-- 2 -->
<g id="node3" class="node">
<title>2</title>
<path fill="none" stroke="#56d89a" stroke-width="2" stroke-dasharray="5,2" d="M85.5,-180C85.5,-180 52.5,-180 52.5,-180 46.5,-180 40.5,-174 40.5,-168 40.5,-168 40.5,-156 40.5,-156 40.5,-150 46.5,-144 52.5,-144 52.5,-144 85.5,-144 85.5,-144 91.5,-144 97.5,-150 97.5,-156 97.5,-156 97.5,-168 97.5,-168 97.5,-174 91.5,-180 85.5,-180"/>
<text text-anchor="middle" x="69" y="-159.5" font-family="sans" font-size="10.00">analysis</text>
</g>
<!-- 2&#45;&gt;1 -->
<g id="edge2" class="edge">
<title>2&#45;&gt;1</title>
<path fill="none" stroke="grey" stroke-width="2" d="M69,-143.7C69,-135.98 69,-126.71 69,-118.11"/>
<polygon fill="grey" stroke="grey" stroke-width="2" points="72.5,-118.1 69,-108.1 65.5,-118.1 72.5,-118.1"/>
</g>
<!-- 3 -->
<g id="node4" class="node">
<title>3</title>
<path fill="none" stroke="#d6d856" stroke-width="2" stroke-dasharray="5,2" d="M94.5,-324C94.5,-324 43.5,-324 43.5,-324 37.5,-324 31.5,-318 31.5,-312 31.5,-312 31.5,-300 31.5,-300 31.5,-294 37.5,-288 43.5,-288 43.5,-288 94.5,-288 94.5,-288 100.5,-288 106.5,-294 106.5,-300 106.5,-300 106.5,-312 106.5,-312 106.5,-318 100.5,-324 94.5,-324"/>
<text text-anchor="middle" x="69" y="-303.5" font-family="sans" font-size="10.00">postprocess</text>
</g>
<!-- 3&#45;&gt;2 -->
<g id="edge3" class="edge">
<title>3&#45;&gt;2</title>
<path fill="none" stroke="grey" stroke-width="2" d="M65.75,-287.89C63.95,-277.54 61.91,-264.06 61,-252 59.8,-236.04 59.8,-231.96 61,-216 61.64,-207.52 62.84,-198.34 64.12,-190.04"/>
<polygon fill="grey" stroke="grey" stroke-width="2" points="67.58,-190.55 65.75,-180.11 60.68,-189.41 67.58,-190.55"/>
</g>
<!-- 7 -->
<g id="node8" class="node">
<title>7</title>
<path fill="none" stroke="#59d856" stroke-width="2" stroke-dasharray="5,2" d="M112,-252C112,-252 82,-252 82,-252 76,-252 70,-246 70,-240 70,-240 70,-228 70,-228 70,-222 76,-216 82,-216 82,-216 112,-216 112,-216 118,-216 124,-222 124,-228 124,-228 124,-240 124,-240 124,-246 118,-252 112,-252"/>
<text text-anchor="middle" x="97" y="-231.5" font-family="sans" font-size="10.00">phylo</text>
</g>
<!-- 3&#45;&gt;7 -->
<g id="edge9" class="edge">
<title>3&#45;&gt;7</title>
<path fill="none" stroke="grey" stroke-width="2" d="M75.92,-287.7C79.07,-279.81 82.88,-270.3 86.38,-261.55"/>
<polygon fill="grey" stroke="grey" stroke-width="2" points="89.69,-262.69 90.16,-252.1 83.19,-260.09 89.69,-262.69"/>
</g>
<!-- 4 -->
<g id="node5" class="node">
<title>4</title>
<path fill="none" stroke="#569ad8" stroke-width="2" stroke-dasharray="5,2" d="M112,-396C112,-396 82,-396 82,-396 76,-396 70,-390 70,-384 70,-384 70,-372 70,-372 70,-366 76,-360 82,-360 82,-360 112,-360 112,-360 118,-360 124,-366 124,-372 124,-372 124,-384 124,-384 124,-390 118,-396 112,-396"/>
<text text-anchor="middle" x="97" y="-375.5" font-family="sans" font-size="10.00">msa</text>
</g>
<!-- 4&#45;&gt;3 -->
<g id="edge5" class="edge">
<title>4&#45;&gt;3</title>
<path fill="none" stroke="grey" stroke-width="2" d="M90.08,-359.7C86.93,-351.81 83.12,-342.3 79.62,-333.55"/>
<polygon fill="grey" stroke="grey" stroke-width="2" points="82.81,-332.09 75.84,-324.1 76.31,-334.69 82.81,-332.09"/>
</g>
<!-- 5 -->
<g id="node6" class="node">
<title>5</title>
<path fill="none" stroke="#d89556" stroke-width="2" stroke-dasharray="5,2" d="M92,-468C92,-468 46,-468 46,-468 40,-468 34,-462 34,-456 34,-456 34,-444 34,-444 34,-438 40,-432 46,-432 46,-432 92,-432 92,-432 98,-432 104,-438 104,-444 104,-444 104,-456 104,-456 104,-462 98,-468 92,-468"/>
<text text-anchor="middle" x="69" y="-447.5" font-family="sans" font-size="10.00">preprocess</text>
</g>
<!-- 5&#45;&gt;3 -->
<g id="edge6" class="edge">
<title>5&#45;&gt;3</title>
<path fill="none" stroke="grey" stroke-width="2" d="M65.75,-431.89C63.95,-421.54 61.91,-408.06 61,-396 59.8,-380.04 59.8,-375.96 61,-360 61.64,-351.52 62.84,-342.34 64.12,-334.04"/>
<polygon fill="grey" stroke="grey" stroke-width="2" points="67.58,-334.55 65.75,-324.11 60.68,-333.41 67.58,-334.55"/>
</g>
<!-- 5&#45;&gt;4 -->
<g id="edge7" class="edge">
<title>5&#45;&gt;4</title>
<path fill="none" stroke="grey" stroke-width="2" d="M75.92,-431.7C79.07,-423.81 82.88,-414.3 86.38,-405.55"/>
<polygon fill="grey" stroke="grey" stroke-width="2" points="89.69,-406.69 90.16,-396.1 83.19,-404.09 89.69,-406.69"/>
</g>
<!-- 6 -->
<g id="node7" class="node">
<title>6</title>
<path fill="none" stroke="#56d8d8" stroke-width="2" stroke-dasharray="5,2" d="M126,-540C126,-540 12,-540 12,-540 6,-540 0,-534 0,-528 0,-528 0,-516 0,-516 0,-510 6,-504 12,-504 12,-504 126,-504 126,-504 132,-504 138,-510 138,-516 138,-516 138,-528 138,-528 138,-534 132,-540 126,-540"/>
<text text-anchor="middle" x="69" y="-525" font-family="sans" font-size="10.00">concatenate</text>
<text text-anchor="middle" x="69" y="-514" font-family="sans" font-size="10.00">genome: WNV_Genomes</text>
</g>
<!-- 6&#45;&gt;5 -->
<g id="edge8" class="edge">
<title>6&#45;&gt;5</title>
<path fill="none" stroke="grey" stroke-width="2" d="M69,-503.7C69,-495.98 69,-486.71 69,-478.11"/>
<polygon fill="grey" stroke="grey" stroke-width="2" points="72.5,-478.1 69,-468.1 65.5,-478.1 72.5,-478.1"/>
</g>
<!-- 7&#45;&gt;2 -->
<g id="edge4" class="edge">
<title>7&#45;&gt;2</title>
<path fill="none" stroke="grey" stroke-width="2" d="M90.08,-215.7C86.93,-207.81 83.12,-198.3 79.62,-189.55"/>
<polygon fill="grey" stroke="grey" stroke-width="2" points="82.81,-188.09 75.84,-180.1 76.31,-190.69 82.81,-188.09"/>
</g>
</g>
</svg>
