<?xml version="1.0" encoding="UTF-8" standalone="no"?>
<!DOCTYPE svg PUBLIC "-//W3C//DTD SVG 1.1//EN"
 "http://www.w3.org/Graphics/SVG/1.1/DTD/svg11.dtd">
<!-- Generated by graphviz version 2.49.1 (20211004.0028)
 -->
<!-- Title: snakemake_dag Pages: 1 -->
<svg width="268pt" height="404pt"
 viewBox="0.00 0.00 268.00 404.00" xmlns="http://www.w3.org/2000/svg" xmlns:xlink="http://www.w3.org/1999/xlink">
<g id="graph0" class="graph" transform="scale(1 1) rotate(0) translate(4 400)">
<title>snakemake_dag</title>
<polygon fill="white" stroke="transparent" points="-4,4 -4,-400 264,-400 264,4 -4,4"/>
<!-- 0 -->
<g id="node1" class="node">
<title>0</title>
<path fill="none" stroke="#d8a456" stroke-width="2" stroke-dasharray="5,2" d="M145,-36C145,-36 115,-36 115,-36 109,-36 103,-30 103,-24 103,-24 103,-12 103,-12 103,-6 109,0 115,0 115,0 145,0 145,0 151,0 157,-6 157,-12 157,-12 157,-24 157,-24 157,-30 151,-36 145,-36"/>
<text text-anchor="middle" x="130" y="-15.5" font-family="sans" font-size="10.00">all</text>
</g>
<!-- 1 -->
<g id="node2" class="node">
<title>1</title>
<path fill="none" stroke="#d85656" stroke-width="2" stroke-dasharray="5,2" d="M146.5,-108C146.5,-108 113.5,-108 113.5,-108 107.5,-108 101.5,-102 101.5,-96 101.5,-96 101.5,-84 101.5,-84 101.5,-78 107.5,-72 113.5,-72 113.5,-72 146.5,-72 146.5,-72 152.5,-72 158.5,-78 158.5,-84 158.5,-84 158.5,-96 158.5,-96 158.5,-102 152.5,-108 146.5,-108"/>
<text text-anchor="middle" x="130" y="-87.5" font-family="sans" font-size="10.00">analysis</text>
</g>
<!-- 1&#45;&gt;0 -->
<g id="edge1" class="edge">
<title>1&#45;&gt;0</title>
<path fill="none" stroke="grey" stroke-width="2" d="M130,-71.7C130,-63.98 130,-54.71 130,-46.11"/>
<polygon fill="grey" stroke="grey" stroke-width="2" points="133.5,-46.1 130,-36.1 126.5,-46.1 133.5,-46.1"/>
</g>
<!-- 2 -->
<g id="node3" class="node">
<title>2</title>
<path fill="none" stroke="#78d856" stroke-width="2" stroke-dasharray="5,2" d="M155.5,-252C155.5,-252 104.5,-252 104.5,-252 98.5,-252 92.5,-246 92.5,-240 92.5,-240 92.5,-228 92.5,-228 92.5,-222 98.5,-216 104.5,-216 104.5,-216 155.5,-216 155.5,-216 161.5,-216 167.5,-222 167.5,-228 167.5,-228 167.5,-240 167.5,-240 167.5,-246 161.5,-252 155.5,-252"/>
<text text-anchor="middle" x="130" y="-231.5" font-family="sans" font-size="10.00">postprocess</text>
</g>
<!-- 2&#45;&gt;1 -->
<g id="edge2" class="edge">
<title>2&#45;&gt;1</title>
<path fill="none" stroke="grey" stroke-width="2" d="M126.75,-215.89C124.95,-205.54 122.91,-192.06 122,-180 120.8,-164.04 120.8,-159.96 122,-144 122.64,-135.52 123.84,-126.34 125.12,-118.04"/>
<polygon fill="grey" stroke="grey" stroke-width="2" points="128.58,-118.55 126.75,-108.11 121.68,-117.41 128.58,-118.55"/>
</g>
<!-- 6 -->
<g id="node7" class="node">
<title>6</title>
<path fill="none" stroke="#56a2d8" stroke-width="2" stroke-dasharray="5,2" d="M173,-180C173,-180 143,-180 143,-180 137,-180 131,-174 131,-168 131,-168 131,-156 131,-156 131,-150 137,-144 143,-144 143,-144 173,-144 173,-144 179,-144 185,-150 185,-156 185,-156 185,-168 185,-168 185,-174 179,-180 173,-180"/>
<text text-anchor="middle" x="158" y="-159.5" font-family="sans" font-size="10.00">phylo</text>
</g>
<!-- 2&#45;&gt;6 -->
<g id="edge7" class="edge">
<title>2&#45;&gt;6</title>
<path fill="none" stroke="grey" stroke-width="2" d="M136.92,-215.7C140.07,-207.81 143.88,-198.3 147.38,-189.55"/>
<polygon fill="grey" stroke="grey" stroke-width="2" points="150.69,-190.69 151.16,-180.1 144.19,-188.09 150.69,-190.69"/>
</g>
<!-- 3 -->
<g id="node4" class="node">
<title>3</title>
<path fill="none" stroke="#c6d856" stroke-width="2" stroke-dasharray="5,2" d="M126,-324C126,-324 12,-324 12,-324 6,-324 0,-318 0,-312 0,-312 0,-300 0,-300 0,-294 6,-288 12,-288 12,-288 126,-288 126,-288 132,-288 138,-294 138,-300 138,-300 138,-312 138,-312 138,-318 132,-324 126,-324"/>
<text text-anchor="middle" x="69" y="-309" font-family="sans" font-size="10.00">msa</text>
<text text-anchor="middle" x="69" y="-298" font-family="sans" font-size="10.00">genome: WNV_Genomes</text>
</g>
<!-- 3&#45;&gt;2 -->
<g id="edge4" class="edge">
<title>3&#45;&gt;2</title>
<path fill="none" stroke="grey" stroke-width="2" d="M84.08,-287.7C91.39,-279.3 100.31,-269.07 108.34,-259.86"/>
<polygon fill="grey" stroke="grey" stroke-width="2" points="111.16,-261.94 115.09,-252.1 105.89,-257.34 111.16,-261.94"/>
</g>
<!-- 4 -->
<g id="node5" class="node">
<title>4</title>
<path fill="none" stroke="#56d87b" stroke-width="2" stroke-dasharray="5,2" d="M214,-324C214,-324 168,-324 168,-324 162,-324 156,-318 156,-312 156,-312 156,-300 156,-300 156,-294 162,-288 168,-288 168,-288 214,-288 214,-288 220,-288 226,-294 226,-300 226,-300 226,-312 226,-312 226,-318 220,-324 214,-324"/>
<text text-anchor="middle" x="191" y="-303.5" font-family="sans" font-size="10.00">preprocess</text>
</g>
<!-- 4&#45;&gt;2 -->
<g id="edge5" class="edge">
<title>4&#45;&gt;2</title>
<path fill="none" stroke="grey" stroke-width="2" d="M175.92,-287.7C168.61,-279.3 159.69,-269.07 151.66,-259.86"/>
<polygon fill="grey" stroke="grey" stroke-width="2" points="154.11,-257.34 144.91,-252.1 148.84,-261.94 154.11,-257.34"/>
</g>
<!-- 5 -->
<g id="node6" class="node">
<title>5</title>
<path fill="none" stroke="#56d8c9" stroke-width="2" stroke-dasharray="5,2" d="M248,-396C248,-396 134,-396 134,-396 128,-396 122,-390 122,-384 122,-384 122,-372 122,-372 122,-366 128,-360 134,-360 134,-360 248,-360 248,-360 254,-360 260,-366 260,-372 260,-372 260,-384 260,-384 260,-390 254,-396 248,-396"/>
<text text-anchor="middle" x="191" y="-381" font-family="sans" font-size="10.00">concatenate</text>
<text text-anchor="middle" x="191" y="-370" font-family="sans" font-size="10.00">genome: WNV_Genomes</text>
</g>
<!-- 5&#45;&gt;4 -->
<g id="edge6" class="edge">
<title>5&#45;&gt;4</title>
<path fill="none" stroke="grey" stroke-width="2" d="M191,-359.7C191,-351.98 191,-342.71 191,-334.11"/>
<polygon fill="grey" stroke="grey" stroke-width="2" points="194.5,-334.1 191,-324.1 187.5,-334.1 194.5,-334.1"/>
</g>
<!-- 6&#45;&gt;1 -->
<g id="edge3" class="edge">
<title>6&#45;&gt;1</title>
<path fill="none" stroke="grey" stroke-width="2" d="M151.08,-143.7C147.93,-135.81 144.12,-126.3 140.62,-117.55"/>
<polygon fill="grey" stroke="grey" stroke-width="2" points="143.81,-116.09 136.84,-108.1 137.31,-118.69 143.81,-116.09"/>
</g>
</g>
</svg>
